<mxfile host="app.diagrams.net" modified="2021-01-06T10:52:33.306Z" agent="5.0 (Windows)" etag="4TYW2ubtH2xUU9uk1jxv" version="14.1.8" type="github">
  <diagram id="0Bd2wgE-LQDvFHv0C_s2" name="Page-1">
    <mxGraphModel dx="1773" dy="376" grid="1" gridSize="10" guides="1" tooltips="1" connect="1" arrows="1" fold="1" page="1" pageScale="1" pageWidth="850" pageHeight="1100" math="0" shadow="0">
      <root>
        <mxCell id="0" />
        <mxCell id="1" parent="0" />
        <mxCell id="eBVHzpUIXm8XzweMFalh-29" value="" style="rounded=0;whiteSpace=wrap;html=1;fontSize=10;" parent="1" vertex="1">
          <mxGeometry x="-10" y="530" width="620" height="160" as="geometry" />
        </mxCell>
        <mxCell id="eBVHzpUIXm8XzweMFalh-1" value="Employee&#xa;ProfileView" style="shape=umlLifeline;perimeter=lifelinePerimeter;container=1;collapsible=0;recursiveResize=0;rounded=0;shadow=0;strokeWidth=1;" parent="1" vertex="1">
          <mxGeometry x="190" y="115" width="100" height="565" as="geometry" />
        </mxCell>
        <mxCell id="eBVHzpUIXm8XzweMFalh-2" value="" style="points=[];perimeter=orthogonalPerimeter;rounded=0;shadow=0;strokeWidth=1;" parent="eBVHzpUIXm8XzweMFalh-1" vertex="1">
          <mxGeometry x="45" y="70" width="10" height="190" as="geometry" />
        </mxCell>
        <mxCell id="eBVHzpUIXm8XzweMFalh-3" value="" style="points=[];perimeter=orthogonalPerimeter;rounded=0;shadow=0;strokeWidth=1;" parent="eBVHzpUIXm8XzweMFalh-1" vertex="1">
          <mxGeometry x="45" y="280" width="10" height="250" as="geometry" />
        </mxCell>
        <mxCell id="eBVHzpUIXm8XzweMFalh-4" value="ProfileController" style="shape=umlLifeline;perimeter=lifelinePerimeter;container=1;collapsible=0;recursiveResize=0;rounded=0;shadow=0;strokeWidth=1;" parent="1" vertex="1">
          <mxGeometry x="380" y="115" width="100" height="565" as="geometry" />
        </mxCell>
        <mxCell id="eBVHzpUIXm8XzweMFalh-5" value="" style="points=[];perimeter=orthogonalPerimeter;rounded=0;shadow=0;strokeWidth=1;" parent="eBVHzpUIXm8XzweMFalh-4" vertex="1">
          <mxGeometry x="45" y="70" width="10" height="190" as="geometry" />
        </mxCell>
        <mxCell id="eBVHzpUIXm8XzweMFalh-6" value="" style="points=[];perimeter=orthogonalPerimeter;rounded=0;shadow=0;strokeWidth=1;" parent="eBVHzpUIXm8XzweMFalh-4" vertex="1">
          <mxGeometry x="45" y="275" width="10" height="255" as="geometry" />
        </mxCell>
        <mxCell id="eBVHzpUIXm8XzweMFalh-7" value="Employee" style="shape=umlActor;verticalLabelPosition=bottom;verticalAlign=top;html=1;outlineConnect=0;" parent="1" vertex="1">
          <mxGeometry x="20" y="100" width="30" height="60" as="geometry" />
        </mxCell>
        <mxCell id="eBVHzpUIXm8XzweMFalh-8" value="Database" style="shape=umlLifeline;perimeter=lifelinePerimeter;container=1;collapsible=0;recursiveResize=0;rounded=0;shadow=0;strokeWidth=1;" parent="1" vertex="1">
          <mxGeometry x="540" y="110" width="100" height="570" as="geometry" />
        </mxCell>
        <mxCell id="eBVHzpUIXm8XzweMFalh-9" value="" style="points=[];perimeter=orthogonalPerimeter;rounded=0;shadow=0;strokeWidth=1;" parent="eBVHzpUIXm8XzweMFalh-8" vertex="1">
          <mxGeometry x="45" y="80" width="10" height="160" as="geometry" />
        </mxCell>
        <mxCell id="eBVHzpUIXm8XzweMFalh-10" value="click on change password button" style="verticalAlign=bottom;endArrow=block;shadow=0;strokeWidth=1;fontSize=10;" parent="1" source="eBVHzpUIXm8XzweMFalh-11" target="eBVHzpUIXm8XzweMFalh-2" edge="1">
          <mxGeometry relative="1" as="geometry">
            <mxPoint x="175" y="560" as="sourcePoint" />
            <mxPoint x="200" y="220" as="targetPoint" />
            <Array as="points">
              <mxPoint x="90" y="220" />
            </Array>
          </mxGeometry>
        </mxCell>
        <mxCell id="eBVHzpUIXm8XzweMFalh-11" value="" style="points=[];perimeter=orthogonalPerimeter;rounded=0;shadow=0;strokeWidth=1;" parent="1" vertex="1">
          <mxGeometry x="30" y="190" width="10" height="490" as="geometry" />
        </mxCell>
        <mxCell id="eBVHzpUIXm8XzweMFalh-12" value="new ChangePasswordPanel()" style="verticalAlign=bottom;endArrow=block;shadow=0;strokeWidth=1;" parent="1" source="eBVHzpUIXm8XzweMFalh-2" target="eBVHzpUIXm8XzweMFalh-5" edge="1">
          <mxGeometry relative="1" as="geometry">
            <mxPoint x="175" y="560" as="sourcePoint" />
            <mxPoint x="300" y="490" as="targetPoint" />
            <Array as="points">
              <mxPoint x="300" y="240" />
            </Array>
          </mxGeometry>
        </mxCell>
        <mxCell id="eBVHzpUIXm8XzweMFalh-15" value="ChangePasswordPopupPanel" style="verticalAlign=bottom;endArrow=open;dashed=1;endSize=8;shadow=0;strokeWidth=1;" parent="1" source="eBVHzpUIXm8XzweMFalh-5" target="eBVHzpUIXm8XzweMFalh-2" edge="1">
          <mxGeometry relative="1" as="geometry">
            <mxPoint x="200" y="310" as="targetPoint" />
            <mxPoint x="350" y="310" as="sourcePoint" />
            <Array as="points">
              <mxPoint x="255" y="310" />
            </Array>
          </mxGeometry>
        </mxCell>
        <mxCell id="eBVHzpUIXm8XzweMFalh-16" value="input old, new and confirm password" style="verticalAlign=bottom;endArrow=block;shadow=0;strokeWidth=1;" parent="1" source="eBVHzpUIXm8XzweMFalh-11" target="eBVHzpUIXm8XzweMFalh-3" edge="1">
          <mxGeometry relative="1" as="geometry">
            <mxPoint x="40" y="420" as="sourcePoint" />
            <mxPoint x="230" y="420" as="targetPoint" />
            <Array as="points">
              <mxPoint x="90" y="425" />
            </Array>
          </mxGeometry>
        </mxCell>
        <mxCell id="eBVHzpUIXm8XzweMFalh-17" value="" style="points=[];perimeter=orthogonalPerimeter;rounded=0;shadow=0;strokeWidth=1;" parent="1" vertex="1">
          <mxGeometry x="585" y="382.5" width="10" height="257.5" as="geometry" />
        </mxCell>
        <mxCell id="eBVHzpUIXm8XzweMFalh-18" value="validateInputPassword" style="verticalAlign=bottom;endArrow=block;shadow=0;strokeWidth=1;" parent="1" source="eBVHzpUIXm8XzweMFalh-3" target="eBVHzpUIXm8XzweMFalh-6" edge="1">
          <mxGeometry relative="1" as="geometry">
            <mxPoint x="210" y="460" as="sourcePoint" />
            <mxPoint x="350" y="460" as="targetPoint" />
            <Array as="points">
              <mxPoint x="305" y="440" />
            </Array>
          </mxGeometry>
        </mxCell>
        <mxCell id="eBVHzpUIXm8XzweMFalh-22" value="checkOldPassword()" style="verticalAlign=bottom;endArrow=block;shadow=0;strokeWidth=1;" parent="1" source="eBVHzpUIXm8XzweMFalh-6" target="eBVHzpUIXm8XzweMFalh-17" edge="1">
          <mxGeometry relative="1" as="geometry">
            <mxPoint x="460" y="470" as="sourcePoint" />
            <mxPoint x="640" y="470" as="targetPoint" />
            <Array as="points">
              <mxPoint x="520" y="470" />
            </Array>
          </mxGeometry>
        </mxCell>
        <mxCell id="eBVHzpUIXm8XzweMFalh-23" value="validOldPassword" style="verticalAlign=bottom;endArrow=open;dashed=1;endSize=8;shadow=0;strokeWidth=1;" parent="1" source="eBVHzpUIXm8XzweMFalh-17" target="eBVHzpUIXm8XzweMFalh-17" edge="1">
          <mxGeometry x="0.0833" relative="1" as="geometry">
            <mxPoint x="400" y="510" as="targetPoint" />
            <mxPoint x="580" y="510" as="sourcePoint" />
            <Array as="points">
              <mxPoint x="530" y="520" />
              <mxPoint x="530" y="510" />
            </Array>
            <mxPoint as="offset" />
          </mxGeometry>
        </mxCell>
        <mxCell id="eBVHzpUIXm8XzweMFalh-24" value="passwordUpdated" style="verticalAlign=bottom;endArrow=open;dashed=1;endSize=8;shadow=0;strokeWidth=1;" parent="1" edge="1">
          <mxGeometry relative="1" as="geometry">
            <mxPoint x="435" y="550" as="targetPoint" />
            <mxPoint x="585" y="550" as="sourcePoint" />
            <Array as="points">
              <mxPoint x="450" y="550" />
            </Array>
          </mxGeometry>
        </mxCell>
        <mxCell id="eBVHzpUIXm8XzweMFalh-25" value="ChangeSucceedPopup" style="verticalAlign=bottom;endArrow=open;dashed=1;endSize=8;shadow=0;strokeWidth=1;" parent="1" target="eBVHzpUIXm8XzweMFalh-3" edge="1">
          <mxGeometry relative="1" as="geometry">
            <mxPoint x="270" y="549" as="targetPoint" />
            <mxPoint x="420" y="549" as="sourcePoint" />
            <Array as="points">
              <mxPoint x="285" y="549" />
            </Array>
          </mxGeometry>
        </mxCell>
        <mxCell id="eBVHzpUIXm8XzweMFalh-26" value="" style="endArrow=none;dashed=1;html=1;fontSize=10;" parent="1" source="eBVHzpUIXm8XzweMFalh-11" target="eBVHzpUIXm8XzweMFalh-17" edge="1">
          <mxGeometry width="50" height="50" relative="1" as="geometry">
            <mxPoint x="190" y="490" as="sourcePoint" />
            <mxPoint x="240" y="440" as="targetPoint" />
            <Array as="points">
              <mxPoint x="350" y="570" />
            </Array>
          </mxGeometry>
        </mxCell>
        <mxCell id="eBVHzpUIXm8XzweMFalh-27" value="failToUpdate" style="verticalAlign=bottom;endArrow=open;dashed=1;endSize=8;shadow=0;strokeWidth=1;" parent="1" edge="1">
          <mxGeometry relative="1" as="geometry">
            <mxPoint x="435" y="590" as="targetPoint" />
            <mxPoint x="585" y="590" as="sourcePoint" />
            <Array as="points">
              <mxPoint x="450" y="590" />
            </Array>
          </mxGeometry>
        </mxCell>
        <mxCell id="eBVHzpUIXm8XzweMFalh-28" value="ChangeFailedPopup" style="verticalAlign=bottom;endArrow=open;dashed=1;endSize=8;shadow=0;strokeWidth=1;" parent="1" target="eBVHzpUIXm8XzweMFalh-3" edge="1">
          <mxGeometry relative="1" as="geometry">
            <mxPoint x="250" y="600" as="targetPoint" />
            <mxPoint x="425" y="600" as="sourcePoint" />
            <Array as="points">
              <mxPoint x="290" y="600" />
            </Array>
          </mxGeometry>
        </mxCell>
        <mxCell id="eBVHzpUIXm8XzweMFalh-30" value="&lt;div&gt;Alt&lt;/div&gt;" style="rounded=0;whiteSpace=wrap;html=1;fontSize=10;" parent="1" vertex="1">
          <mxGeometry x="-10" y="530" width="30" height="20" as="geometry" />
        </mxCell>
        <mxCell id="eBVHzpUIXm8XzweMFalh-31" value="[update succeed]" style="text;html=1;strokeColor=none;fillColor=none;align=center;verticalAlign=middle;whiteSpace=wrap;rounded=0;fontSize=10;" parent="1" vertex="1">
          <mxGeometry x="50" y="540" width="80" height="20" as="geometry" />
        </mxCell>
        <mxCell id="eBVHzpUIXm8XzweMFalh-32" value="[update failed]" style="text;html=1;strokeColor=none;fillColor=none;align=center;verticalAlign=middle;whiteSpace=wrap;rounded=0;fontSize=10;" parent="1" vertex="1">
          <mxGeometry x="40" y="580" width="80" height="20" as="geometry" />
        </mxCell>
      </root>
    </mxGraphModel>
  </diagram>
</mxfile>
